<svg width="40" height="39" fill="none" xmlns="http://www.w3.org/2000/svg"><g fill="#000"><path d="M7.012 0h25.976C36.84 0 40 3.16 40 7.012v17.58c0 3.852-3.16 7.013-7.012 7.013H22.222l-12.247 6.42v-6.42H7.012C3.16 31.605 0 28.445 0 24.593V7.013C0 3.16 3.16 0 7.012 0zm25.976 2.37H7.012A4.637 4.637 0 002.37 7.012v17.58a4.637 4.637 0 004.642 4.643h5.334v4.938l9.284-4.938h11.358a4.637 4.637 0 004.642-4.642V7.013a4.637 4.637 0 00-4.642-4.643z"/><path d="M11.654 11.555c-.592 0-1.086-.493-1.086-1.185 0-.592.494-1.086 1.086-1.086h7.408c.691 0 1.185.494 1.185 1.086 0 .692-.494 1.185-1.185 1.185h-7.408zm0 5.433c-.592 0-1.086-.494-1.086-1.186 0-.691.494-1.185 1.086-1.185h16.593c.691 0 1.185.494 1.185 1.185 0 .692-.494 1.186-1.185 1.186H11.654zm0 5.432c-.592 0-1.086-.593-1.086-1.186 0-.69.494-1.185 1.086-1.185h16.593c.691 0 1.185.494 1.185 1.186 0 .592-.494 1.185-1.185 1.185H11.654z"/></g></svg>