<?xml version="1.0" encoding="utf-8"?><svg xmlns="http://www.w3.org/2000/svg" xmlns:xlink="http://www.w3.org/1999/xlink"><symbol fill="none" viewBox="0 0 22 8" id="arrow-pagination" xmlns="http://www.w3.org/2000/svg"><path d="M.646 4.354a.5.5 0 0 1 0-.708L3.828.464a.5.5 0 1 1 .708.708L1.707 4l2.829 2.828a.5.5 0 1 1-.708.708L.646 4.354ZM22 4.5H1v-1h21v1Z" fill="#000"/></symbol><symbol fill="none" viewBox="0 0 9 20" id="facebook-icon" xmlns="http://www.w3.org/2000/svg"><path d="M8.638 9.98h-2.67V20H1.924V9.98H0V6.46h1.924V4.18c0-1.63.755-4.181 4.08-4.181L9 .013V3.43H6.826c-.356 0-.858.182-.858.96v2.072h3.023L8.638 9.98Z" fill="#A98567"/></symbol><symbol fill="none" viewBox="0 0 18 32" id="icon-arrow" xmlns="http://www.w3.org/2000/svg"><path d="m1.293 31.293 16-16M1.293.707l16 16" stroke="#000" stroke-width="2"/></symbol><symbol fill="none" viewBox="0 0 20 21" id="icon-download" xmlns="http://www.w3.org/2000/svg"><path d="M0 0v9.993a1.001 1.001 0 0 0 2.002 0V2h16.002v7.993a1 1 0 1 0 1.992 0V0H0Zm9.999 5.996a1 1 0 0 0-.78.377L5.22 11.375a1 1 0 0 0 1.564 1.248L9 9.854v9.148a1 1 0 1 0 2 0V9.847l2.222 2.777a1 1 0 1 0 1.557-1.248l-3.994-5.004A1 1 0 0 0 10 5.997v-.001Z" fill="#000"/></symbol><symbol fill="none" viewBox="0 0 40 34" id="icon-gallery" xmlns="http://www.w3.org/2000/svg"><g fill="#000"><path d="M22.346 21.373a3.606 3.606 0 1 0 0-7.21 3.606 3.606 0 0 0 0 7.21Zm0-5.493a1.888 1.888 0 1 1 0 3.776 1.888 1.888 0 0 1 0-3.776Z"/><path fill-rule="evenodd" clip-rule="evenodd" d="M9.57 0H40v24.42h-4.807v4.764H30.43v4.807H0V9.571h4.807V4.807H9.57V0Zm20.86 27.51h3.046V6.525H6.524V9.57h23.905v17.94Zm4.763-4.806h3.09V1.717H11.288v3.09h23.905v17.897Zm-6.438-11.402H1.717v21.03h27.038v-21.03Z"/><path d="M4.149 21.316h1.717v8.441H4.149zm9.871 0h1.717v8.441H14.02zm3.004 0h1.717v8.441h-1.717z"/><path d="M14.02 28.04v1.717H5.58V28.04z"/><path d="M18.598 28.04v1.717h-8.44V28.04zm0-6.724v1.717h-8.44v-1.717z"/><path d="M14.02 21.316v1.717H5.58v-1.717z"/><path d="m9.905 15.52 1.214 1.214-5.756 5.756-1.214-1.214z"/><path d="m9.96 15.47-1.215 1.214 5.807 5.807 1.214-1.215z"/></g></symbol><symbol fill="none" viewBox="0 0 40 41" id="icon-garanty" xmlns="http://www.w3.org/2000/svg"><g fill="#000"><path d="M19.996 8.354c-6.65 0-12.055 5.405-12.055 12.054 0 6.642 5.406 12.055 12.055 12.055 6.65 0 12.055-5.414 12.055-12.055 0-6.65-5.405-12.054-12.055-12.054Zm0 22.062c-5.513 0-10.008-4.485-10.008-10.008 0-5.513 4.486-10.007 10.008-10.007 5.522 0 10.008 4.494 10.008 10.007 0 5.514-4.494 10.008-10.008 10.008Z"/><path d="m39.343 22.063-.726-1.002a1.354 1.354 0 0 1-.008-1.587l.71-1.011a3.42 3.42 0 0 0 .535-2.75 3.401 3.401 0 0 0-1.705-2.22l-1.087-.585a1.357 1.357 0 0 1-.7-1.42l.207-1.22a3.435 3.435 0 0 0-.709-2.707 3.415 3.415 0 0 0-2.498-1.262l-1.237-.05a1.35 1.35 0 0 1-1.244-.977l-.36-1.179a3.421 3.421 0 0 0-3.274-2.455c-.46 0-.92.092-1.346.275l-1.136.484a1.372 1.372 0 0 1-1.545-.342l-.827-.919A3.41 3.41 0 0 0 19.863 0a3.42 3.42 0 0 0-2.574 1.17l-.802.935a1.38 1.38 0 0 1-1.545.368l-1.145-.467a3.466 3.466 0 0 0-1.294-.26 3.409 3.409 0 0 0-3.284 2.507l-.326 1.194c-.15.56-.651.961-1.236.994l-1.228.076c-.97.05-1.88.526-2.481 1.294a3.415 3.415 0 0 0-.67 2.716l.227 1.211a1.358 1.358 0 0 1-.677 1.437l-1.078.601a3.415 3.415 0 0 0-1.67 2.248c-.21.952 0 1.954.576 2.74l.727.994c.342.469.351 1.11.008 1.587l-.71 1.01a3.418 3.418 0 0 0-.535 2.75 3.4 3.4 0 0 0 1.704 2.221l1.087.585c.518.276.793.844.7 1.42l-.208 1.22c-.158.96.1 1.947.71 2.707a3.413 3.413 0 0 0 2.497 1.26l1.237.05a1.35 1.35 0 0 1 1.245.978l.342 1.186a3.421 3.421 0 0 0 3.275 2.457c.46 0 .919-.092 1.345-.276l1.135-.484a1.375 1.375 0 0 1 1.546.343l.828.918a3.42 3.42 0 0 0 2.532 1.136 3.42 3.42 0 0 0 2.574-1.17l.81-.935a1.382 1.382 0 0 1 1.545-.368l1.144.468c.418.167.853.259 1.296.259a3.406 3.406 0 0 0 3.282-2.506l.326-1.195c.15-.56.652-.96 1.237-.994l1.236-.075a3.4 3.4 0 0 0 3.15-4.01l-.226-1.211a1.357 1.357 0 0 1 .677-1.437l1.077-.602a3.416 3.416 0 0 0 1.672-2.247 3.4 3.4 0 0 0-.578-2.74Zm-1.42 2.297a1.35 1.35 0 0 1-.667.895l-1.078.601a3.399 3.399 0 0 0-1.696 3.592l.226 1.211c.075.394-.026.778-.267 1.087-.243.31-.594.493-.994.517l-1.229.076a3.399 3.399 0 0 0-3.09 2.498l-.326 1.186a1.36 1.36 0 0 1-1.311 1.002c-.177 0-.351-.033-.519-.1l-1.145-.467a3.471 3.471 0 0 0-1.294-.26 3.42 3.42 0 0 0-2.573 1.17l-.81.928c-.26.3-.627.467-1.028.467a1.33 1.33 0 0 1-1.01-.45l-.828-.92a3.418 3.418 0 0 0-3.885-.86l-1.136.483a1.362 1.362 0 0 1-1.838-.868l-.342-1.186a3.414 3.414 0 0 0-3.125-2.456l-1.236-.05a1.318 1.318 0 0 1-.995-.502 1.332 1.332 0 0 1-.283-1.077l.208-1.22a3.397 3.397 0 0 0-1.754-3.567l-1.086-.584a1.337 1.337 0 0 1-.685-.886 1.31 1.31 0 0 1 .217-1.094l.71-1.011a3.397 3.397 0 0 0-.033-3.976l-.727-.994a1.314 1.314 0 0 1-.226-1.094 1.35 1.35 0 0 1 .67-.894l1.077-.602a3.4 3.4 0 0 0 1.695-3.592l-.217-1.203a1.335 1.335 0 0 1 .267-1.086c.243-.31.594-.493.994-.517l1.229-.076a3.409 3.409 0 0 0 3.09-2.498l.326-1.194a1.359 1.359 0 0 1 1.83-.903l1.145.467c.418.168.852.26 1.295.26a3.42 3.42 0 0 0 2.572-1.17l.81-.927a1.34 1.34 0 0 1 1.029-.468c.392 0 .752.16 1.01.451l.827.919a3.419 3.419 0 0 0 3.885.86l1.136-.484a1.361 1.361 0 0 1 1.838.868l.342 1.187a3.415 3.415 0 0 0 3.126 2.456l1.236.05c.393.017.752.192 1.002.502.252.308.35.693.285 1.077l-.21 1.22a3.4 3.4 0 0 0 1.755 3.567l1.086.585c.351.183.593.5.685.885.092.384.017.778-.209 1.094l-.709 1.011a3.4 3.4 0 0 0 .033 3.978l.727.993c.198.317.283.709.198 1.093Z"/><path d="m22.962 17.093-4.478 4.452-1.454-1.462a1.026 1.026 0 0 0-1.453 1.446l2.18 2.189a1.023 1.023 0 0 0 1.445 0l5.205-5.172a1.027 1.027 0 0 0 .009-1.445 1.036 1.036 0 0 0-1.454-.008Z"/></g></symbol><symbol fill="none" viewBox="0 0 40 40" id="icon-home" xmlns="http://www.w3.org/2000/svg"><path d="M20 0C8.979 0 0 8.979 0 20s8.979 20 20 20 20-8.979 20-20S31.021 0 20 0Zm0 37.85c-9.839 0-17.85-8.011-17.85-17.85 0-9.839 8.011-17.85 17.85-17.85 9.839 0 17.85 8.011 17.85 17.85 0 9.839-8.011 17.85-17.85 17.85Z" fill="#fff"/><path d="M32.312 19.409c0-.054 0-.054-.054-.108 0-.054 0-.054-.054-.107 0-.054-.054-.054-.054-.108s-.053-.054-.053-.107c0-.054-.054-.054-.108-.108 0 0 0-.054-.054-.054L20.753 7.42l-.054-.053-.108-.108c-.053 0-.053-.054-.107-.054s-.054-.053-.108-.053c-.053 0-.053 0-.107-.054-.054 0-.054 0-.108-.054h-.43c-.054 0-.054 0-.108.054-.053 0-.053 0-.107.054-.054 0-.054.053-.107.053-.054 0-.054.054-.108.054s-.054.054-.108.108l-.053.053L8.01 18.871s0 .054-.053.054l-.108.107c0 .054-.053.054-.053.108s-.054.054-.054.107c0 .054 0 .054-.054.108 0 .054 0 .054-.054.107v.43c0 .054 0 .054.054.108 0 .054 0 .054.054.108 0 .053.054.107.054.16v.055l.16.16s.055 0 .055.055l.107.107c.054 0 .054.054.108.054.053 0 .053.054.107.054s.054 0 .108.053h3.064v8.656c0 .592.484 1.076 1.075 1.076h5.323c.591 0 1.075-.484 1.075-1.076v-5.268h2.043v5.268c0 .592.484 1.076 1.076 1.076h5.322c.592 0 1.075-.484 1.075-1.076V20.7h3.011c.054 0 .108 0 .108-.054.053 0 .053-.054.107-.054s.054-.053.108-.053l.107-.108s.054 0 .054-.054l.161-.16v-.055c.054-.053.054-.107.054-.161 0-.054 0-.054.054-.108 0-.053 0-.053.054-.107v-.376Zm-4.893-.86c-.591 0-1.075.483-1.075 1.075v8.656h-3.172v-5.27a1.08 1.08 0 0 0-1.075-1.075h-4.194c-.591 0-1.075.484-1.075 1.076v5.269h-3.172v-8.656c0-.592-.484-1.076-1.075-1.076h-1.29L20 9.678l8.656 8.817h-1.237v.053Z" fill="#fff"/></symbol><symbol fill="none" viewBox="0 0 37 40" id="icon-lamp" xmlns="http://www.w3.org/2000/svg"><g fill="#000"><path d="m36.009 14.848-1.75-2.383a2.858 2.858 0 0 0-3.523-.888l-6.405-9.659a3.734 3.734 0 0 0-.206-.337l-.01-.014A3.66 3.66 0 0 0 19.01.666L2.292 12.41a4.361 4.361 0 0 0-.93 7.007l11.612 11v2.014h-1.081a3.248 3.248 0 0 0-3.244 3.243v1.082A3.247 3.247 0 0 0 11.893 40h12.973a3.247 3.247 0 0 0 3.244-3.243v-1.082a3.248 3.248 0 0 0-3.244-3.243h-1.08v-3.243a5.393 5.393 0 0 0-2.1-4.268l.003-.004-14.55-12.028a4.403 4.403 0 0 0-.932-.587l14.045-9.867a1.498 1.498 0 0 1 2.083.36l.007.01a1.491 1.491 0 0 1-.33 2.055l-10.768 8.069a1.08 1.08 0 1 0 1.297 1.73l7.283-5.458 5.274 6.512a2.852 2.852 0 0 0-.208 3.629l1.75 2.383a1.081 1.081 0 0 0 1.743-1.28l-1.75-2.383a.693.693 0 0 1 .15-.968l4.765-3.498a.693.693 0 0 1 .969.148l1.749 2.384a1.083 1.083 0 0 0 1.511.231 1.078 1.078 0 0 0 .41-1.129 1.083 1.083 0 0 0-.178-.382ZM25.948 35.675v1.082a1.082 1.082 0 0 1-1.082 1.08H11.893a1.082 1.082 0 0 1-1.081-1.08v-1.082a1.083 1.083 0 0 1 1.08-1.08h12.974a1.082 1.082 0 0 1 1.082 1.08Zm-10.812-3.243v-3.243a3.243 3.243 0 1 1 6.487 0v3.243h-6.487Zm1.976-8.493a5.42 5.42 0 0 0-3.913 3.715l-10.35-9.806a2.199 2.199 0 0 1 2.912-3.292l11.351 9.383ZM23.309 6.59a3.7 3.7 0 0 0 .89-.96l4.762 7.183-2.15 1.578-5.255-6.488 1.753-1.313Z"/><path d="M18.38 30.27a1.081 1.081 0 1 0 0-2.163 1.081 1.081 0 0 0 0 2.163Z"/></g></symbol><symbol fill="none" viewBox="0 0 40 40" id="icon-medal" xmlns="http://www.w3.org/2000/svg"><g fill="#000"><path d="M10.712 23.248h2.427v-6.652a6.148 6.148 0 0 0-.923.288 4.062 4.062 0 0 0-.8.43L10.35 15.79a8.02 8.02 0 0 1 1.196-.622 8.03 8.03 0 0 1 1.238-.41c.419-.105.838-.18 1.257-.226.424-.046.846-.068 1.265-.068l-.007.013h.007v8.77h2.318v1.901h-6.912v-1.9Zm8.368-2.283 6.248-6.501h2.167v6.5h2.303v1.9h-2.303v2.284h-2.167v-2.283h-6.262l.014-1.9Zm6.248 0v-3.76l-3.65 3.76h3.65Z"/><path fill-rule="evenodd" clip-rule="evenodd" d="M13.961 8.063c-10.045 3.653-11.732 21.41 3.464 26.16l-.597 1.908c-16.866-5.27-15.547-25.585-3.55-29.947l.683 1.88Zm8.86 26.165c14.212-4.737 14.096-20.655 4.33-26.236l.991-1.737c11.274 6.442 11.158 24.589-4.688 29.87l-.632-1.897Z"/><circle cx="20.092" cy="35.148" r="1"/><path fill-rule="evenodd" clip-rule="evenodd" d="M38 20c0 9.941-8.059 18-18 18S2 29.941 2 20 10.059 2 20 2s18 8.059 18 18Zm2 0c0 11.046-8.954 20-20 20S0 31.046 0 20 8.954 0 20 0s20 8.954 20 20Z"/></g></symbol><symbol fill="none" viewBox="0 0 40 39" id="icon-message" xmlns="http://www.w3.org/2000/svg"><g fill="#000"><path d="M7.012 0h25.976C36.84 0 40 3.16 40 7.012v17.58c0 3.852-3.16 7.013-7.012 7.013H22.222l-12.247 6.42v-6.42H7.012C3.16 31.605 0 28.445 0 24.593V7.013C0 3.16 3.16 0 7.012 0Zm25.976 2.37H7.012A4.637 4.637 0 0 0 2.37 7.012v17.58a4.637 4.637 0 0 0 4.642 4.643h5.334v4.938l9.284-4.938h11.358a4.637 4.637 0 0 0 4.642-4.642V7.013a4.637 4.637 0 0 0-4.642-4.643Z"/><path d="M11.654 11.555c-.592 0-1.086-.493-1.086-1.185 0-.592.494-1.086 1.086-1.086h7.408c.691 0 1.185.494 1.185 1.086 0 .692-.494 1.185-1.185 1.185h-7.408Zm0 5.433c-.592 0-1.086-.494-1.086-1.186 0-.691.494-1.185 1.086-1.185h16.593c.691 0 1.185.494 1.185 1.185 0 .692-.494 1.186-1.185 1.186H11.654Zm0 5.432c-.592 0-1.086-.593-1.086-1.186 0-.69.494-1.185 1.086-1.185h16.593c.691 0 1.185.494 1.185 1.186 0 .592-.494 1.185-1.185 1.185H11.654Z"/></g></symbol><symbol fill="none" viewBox="0 0 14 19" id="icon-mobPhone" xmlns="http://www.w3.org/2000/svg"><g fill="#FFF4DE"><path d="M11.4 0H1.9C.855 0 0 .855 0 1.9v15.2C0 18.145.855 19 1.9 19h9.5c1.045 0 1.9-.855 1.9-1.9V1.9c0-1.045-.855-1.9-1.9-1.9Zm0 1.9v9.5H1.9V1.9h9.5ZM1.9 17.1v-3.8h9.5v3.8H1.9Z"/><path d="M6.65 16.15a.95.95 0 1 0 0-1.9.95.95 0 0 0 0 1.9Zm1.9-13.3h-3.8v1.9h3.8v-1.9Z"/></g></symbol><symbol fill="none" viewBox="0 0 20 20" id="instagram-icon" xmlns="http://www.w3.org/2000/svg"><path fill-rule="evenodd" clip-rule="evenodd" d="M10 15.185a5.185 5.185 0 1 0 0-10.37 5.185 5.185 0 0 0 0 10.37ZM6.981 10a2.978 2.978 0 0 1 2.974-2.974A2.977 2.977 0 0 1 12.93 10a2.977 2.977 0 0 1-2.974 2.974A2.978 2.978 0 0 1 6.981 10Z" fill="#A98567"/><path d="M16.667 4.63a1.296 1.296 0 1 1-2.593 0 1.296 1.296 0 0 1 2.593 0Z" fill="#A98567"/><path fill-rule="evenodd" clip-rule="evenodd" d="M5.185 0A5.185 5.185 0 0 0 0 5.185v9.63A5.185 5.185 0 0 0 5.185 20h9.63A5.185 5.185 0 0 0 20 14.815v-9.63A5.185 5.185 0 0 0 14.815 0h-9.63Zm-.37 2.222a2.593 2.593 0 0 0-2.593 2.593v10.37a2.593 2.593 0 0 0 2.593 2.593h10.37a2.593 2.593 0 0 0 2.593-2.593V4.815a2.593 2.593 0 0 0-2.593-2.593H4.815Z" fill="#A98567"/></symbol><symbol fill="none" viewBox="0 0 182 70" id="logo" xmlns="http://www.w3.org/2000/svg"><path d="M0 56.198v-22.07h15.022v4.136H5.36v5.26h8.34v4.203H5.36v8.47H0Zm84.034 0v-22.07h5.36v8.934h8.107v-8.934h5.327v22.07h-5.327v-8.769h-8.107v8.769h-5.36Zm29.437.496c-2.823 0-4.952-.75-6.386-2.25-1.411-1.522-2.117-3.75-2.117-6.684 0-3.154.717-5.415 2.151-6.783 1.455-1.39 3.573-2.085 6.352-2.085 1.875 0 3.442.32 4.699.96 1.279.618 2.239 1.577 2.879 2.879.661 1.301.992 2.978.992 5.03 0 2.933-.739 5.16-2.217 6.683-1.478 1.5-3.595 2.25-6.353 2.25Zm0-3.938c.817 0 1.489-.187 2.019-.562.551-.397.959-.96 1.224-1.688.287-.75.43-1.665.43-2.746 0-1.235-.143-2.206-.43-2.912-.265-.728-.673-1.246-1.224-1.555-.552-.33-1.224-.496-2.019-.496-.838 0-1.522.165-2.051.496-.529.331-.926.86-1.191 1.588-.243.706-.364 1.666-.364 2.88 0 1.676.287 2.933.86 3.771.596.816 1.511 1.224 2.746 1.224Zm18.189 3.938c-1.544 0-2.912-.243-4.103-.728-1.191-.485-2.118-1.224-2.78-2.217-.661-1.015-.992-2.327-.992-3.937V39.455h4.93v9.96c0 1.058.231 1.852.695 2.382.485.507 1.246.76 2.283.76 1.059 0 1.82-.253 2.283-.76.463-.53.695-1.324.695-2.383v-9.959h4.632v10.357c0 2.382-.684 4.125-2.051 5.228-1.368 1.102-3.232 1.654-5.592 1.654Zm15.208 0c-1.192 0-2.217-.132-3.078-.397a23.196 23.196 0 0 1-2.382-.827v-4.335c.463.309.982.629 1.555.96a9.633 9.633 0 0 0 1.886.76 8.149 8.149 0 0 0 2.217.299c.794 0 1.346-.133 1.654-.398.331-.286.497-.628.497-1.025 0-.375-.166-.673-.497-.894-.33-.242-.761-.44-1.29-.595a26.842 26.842 0 0 0-1.687-.43 8.792 8.792 0 0 1-1.589-.497 5.212 5.212 0 0 1-1.422-.96 4.653 4.653 0 0 1-1.026-1.455c-.243-.596-.364-1.313-.364-2.15 0-1.082.209-1.975.628-2.681a5.057 5.057 0 0 1 1.655-1.754 6.768 6.768 0 0 1 2.217-.926 8.493 8.493 0 0 1 2.316-.265c1.368.044 2.449.199 3.243.463a9.621 9.621 0 0 1 2.217.96v3.871a36.38 36.38 0 0 0-2.25-1.158c-.728-.375-1.567-.562-2.515-.562-.86 0-1.478.132-1.853.397-.375.264-.563.617-.563 1.059 0 .419.122.75.364.992.265.243.607.441 1.026.596.419.132.882.265 1.39.397.551.132 1.114.298 1.687.496a5.733 5.733 0 0 1 1.655.794c.529.331.948.805 1.257 1.423.331.596.496 1.39.496 2.382-.022 1.346-.386 2.427-1.091 3.243-.706.794-1.622 1.368-2.747 1.72-1.103.331-2.305.497-3.606.497Zm17.582 0c-1.676 0-3.165-.342-4.467-1.026a7.667 7.667 0 0 1-3.011-2.978c-.705-1.301-1.058-2.845-1.058-4.632 0-2.912.716-5.162 2.15-6.75 1.456-1.61 3.53-2.416 6.221-2.416 1.853 0 3.342.397 4.467 1.192 1.147.794 1.985 1.952 2.515 3.474.529 1.522.783 3.375.761 5.559h-12.739l-.53-3.144h9.199l-.728 1.556c-.022-1.787-.276-3.045-.761-3.773-.486-.727-1.28-1.092-2.383-1.092a3.18 3.18 0 0 0-1.687.464c-.485.309-.871.827-1.158 1.555-.265.706-.397 1.687-.397 2.945 0 1.588.375 2.812 1.125 3.673.772.86 1.996 1.29 3.673 1.29a8.36 8.36 0 0 0 1.819-.199c.618-.154 1.192-.33 1.721-.529.529-.199.982-.375 1.357-.53v4.236c-.795.33-1.688.595-2.681.794-.97.22-2.106.33-3.408.33Zm-141.094 0c-1.014 0-1.974-.1-2.878-.298-.883-.176-1.666-.474-2.35-.893a4.599 4.599 0 0 1-1.555-1.754c-.375-.75-.562-1.676-.562-2.78 0-1.036.21-1.94.628-2.712.442-.773 1.103-1.368 1.986-1.787.882-.42 1.996-.629 3.342-.629.75 0 1.478.077 2.184.232a8.598 8.598 0 0 1 1.886.628c.573.265 1.025.552 1.356.86l.199 2.383c-.441-.265-.97-.474-1.589-.629a8.165 8.165 0 0 0-1.985-.231c-1.08 0-1.875.165-2.382.496-.485.309-.728.805-.728 1.489 0 .42.121.794.364 1.125.242.33.562.584.96.761.419.177.849.265 1.29.265 1.125 0 1.908-.078 2.35-.232.462-.154.694-.463.694-.926v-6.155c0-1.014-.331-1.742-.993-2.184-.64-.463-1.555-.694-2.746-.694a8.75 8.75 0 0 0-2.945.529c-.97.33-1.765.739-2.382 1.224v-4.367c.573-.353 1.456-.684 2.647-.993 1.213-.309 2.57-.463 4.07-.463.53 0 1.114.044 1.753.132a8.79 8.79 0 0 1 1.92.496c.64.22 1.224.552 1.753.993a4.8 4.8 0 0 1 1.324 1.688c.33.683.496 1.533.496 2.547l-.033 7.908c0 .949-.32 1.721-.96 2.317-.64.573-1.566.992-2.78 1.257-1.19.265-2.635.397-4.334.397Zm18.294 0c-.926 0-1.853-.066-2.78-.199a9.519 9.519 0 0 1-2.48-.628c-.729-.331-1.313-.772-1.755-1.324-.44-.573-.661-1.312-.661-2.217V33.267h4.83V42.4l-.926-1.555a4.086 4.086 0 0 1 1.522-1.092 7.489 7.489 0 0 1 1.886-.596c.64-.11 1.17-.165 1.588-.165 2.471 0 4.346.75 5.625 2.25 1.302 1.478 1.953 3.65 1.953 6.518 0 1.677-.221 3.088-.662 4.235-.441 1.148-1.059 2.063-1.853 2.747a7.359 7.359 0 0 1-2.78 1.489c-1.058.309-2.227.463-3.507.463Zm-.066-4.103c.97 0 1.743-.188 2.316-.563a3.23 3.23 0 0 0 1.224-1.62c.265-.685.398-1.468.398-2.35 0-1.257-.166-2.261-.497-3.011-.33-.75-.783-1.29-1.356-1.621-.574-.331-1.236-.497-1.986-.497-.441 0-.926.055-1.456.166-.53.11-1.003.286-1.422.53v7.41c0 .398.12.707.364.927.242.22.573.386.992.497.441.088.916.132 1.423.132Zm19.399 4.103c-1.676 0-3.165-.342-4.467-1.026a7.664 7.664 0 0 1-3.01-2.978c-.707-1.301-1.06-2.845-1.06-4.632 0-2.912.717-5.162 2.151-6.75 1.456-1.61 3.53-2.416 6.22-2.416 1.854 0 3.343.397 4.468 1.192 1.147.794 1.985 1.952 2.514 3.474.53 1.522.783 3.375.761 5.559H55.821l-.53-3.144h9.2l-.728 1.556c-.023-1.787-.276-3.045-.761-3.773-.486-.727-1.28-1.092-2.383-1.092a3.18 3.18 0 0 0-1.687.464c-.486.309-.872.827-1.159 1.555-.264.706-.397 1.687-.397 2.945 0 1.588.376 2.812 1.126 3.673.771.86 1.996 1.29 3.672 1.29.618 0 1.224-.066 1.82-.199.618-.154 1.191-.33 1.72-.529.53-.199.982-.375 1.357-.53v4.236c-.794.33-1.687.595-2.68.794-.97.22-2.106.33-3.408.33Zm9.755-.496v-14.99c.31-.264.86-.562 1.655-.893a17.684 17.684 0 0 1 2.713-.926 11.62 11.62 0 0 1 3.11-.43c1.037 0 1.853.077 2.449.231.595.155 1.048.353 1.356.596v3.606a9.591 9.591 0 0 0-1.422-.198 23.318 23.318 0 0 0-1.787-.066 23.18 23.18 0 0 0-1.754 0 10.62 10.62 0 0 0-1.39.132v12.938h-4.93Z" fill="#FFF4DE"/><path d="M75.645 58.955h-4.99v10.504H182V23.503L126.328 0 70.655 23.503v12.868h4.99v-9.585l50.683-21.403 50.683 21.403V64.47H75.645v-5.515Z" fill="#FFF4DE"/></symbol><symbol fill="none" viewBox="0 0 10 10" id="marker-dot" xmlns="http://www.w3.org/2000/svg"><circle cx="5" cy="5" r="3.5" stroke="#000" stroke-width="3"/></symbol><symbol fill="none" viewBox="0 0 40 40" id="pagination-home" xmlns="http://www.w3.org/2000/svg"><g fill="#000"><path d="M20 0C8.979 0 0 8.979 0 20s8.979 20 20 20 20-8.979 20-20S31.021 0 20 0Zm0 37.85c-9.839 0-17.85-8.011-17.85-17.85 0-9.839 8.011-17.85 17.85-17.85 9.839 0 17.85 8.011 17.85 17.85 0 9.839-8.011 17.85-17.85 17.85Z"/><path d="M32.312 19.409c0-.054 0-.054-.054-.108 0-.054 0-.054-.054-.107 0-.054-.054-.054-.054-.108s-.053-.054-.053-.107c0-.054-.054-.054-.108-.108 0 0 0-.054-.054-.054L20.753 7.42l-.054-.053-.108-.108c-.053 0-.053-.054-.107-.054s-.054-.053-.108-.053c-.053 0-.053 0-.107-.054-.054 0-.054 0-.108-.054h-.43c-.054 0-.054 0-.108.054-.053 0-.053 0-.107.054-.054 0-.054.053-.107.053-.054 0-.054.054-.108.054s-.054.054-.108.108l-.053.053L8.01 18.871s0 .054-.053.054l-.108.107c0 .054-.053.054-.053.108s-.054.054-.054.107c0 .054 0 .054-.054.108 0 .054 0 .054-.054.107v.43c0 .054 0 .054.054.108 0 .054 0 .054.054.108 0 .053.054.107.054.16v.055l.16.16s.055 0 .055.055l.107.107c.054 0 .054.054.108.054.053 0 .053.054.107.054s.054 0 .108.053h3.064v8.656c0 .592.484 1.076 1.075 1.076h5.323c.591 0 1.075-.484 1.075-1.076v-5.268h2.043v5.268c0 .592.484 1.076 1.076 1.076h5.322c.592 0 1.075-.484 1.075-1.076V20.7h3.011c.054 0 .108 0 .108-.054.053 0 .053-.054.107-.054s.054-.053.108-.053l.107-.108s.054 0 .054-.054l.161-.16v-.055c.054-.053.054-.107.054-.161 0-.054 0-.054.054-.108 0-.053 0-.053.054-.107v-.376Zm-4.893-.86c-.591 0-1.075.483-1.075 1.075v8.656h-3.172v-5.27a1.08 1.08 0 0 0-1.075-1.075h-4.194c-.591 0-1.075.484-1.075 1.076v5.269h-3.172v-8.656c0-.592-.484-1.076-1.075-1.076h-1.29L20 9.678l8.656 8.817h-1.237v.053Z"/></g></symbol><symbol fill="none" viewBox="0 0 61 56" id="project-form-icon" xmlns="http://www.w3.org/2000/svg"><path d="M52.759 56h-44.5C3.722 56 .026 52.348 0 47.802V21.66c0-4.555 3.705-8.268 8.233-8.268a.92.92 0 0 1 .92.92l-.01 7.768h12.752l4.152-11.736a4.634 4.634 0 0 1 2.452-3.941v-5.08a.92.92 0 0 1 .92-.92h2.364c.508 0 .91.412.91.92v4.984a4.638 4.638 0 0 1 2.637 4.037l4.151 11.736h12.367v-7.768c0-.508.403-.92.91-.92 4.529 0 8.216 3.67 8.233 8.198L61 47.758c-.105 4.676-3.565 8.136-8.241 8.241ZM30.872 5.851V2.234h-.543v3.617h.543Zm-.254 1.83a2.821 2.821 0 0 0-2.75 2.82 2.83 2.83 0 0 0 2.82 2.82c1.56 0 2.82-1.27 2.82-2.82 0-1.62-1.296-2.82-2.89-2.82Zm-9.502 22.071c.762.096 1.401.447 1.927 1.007a1.94 1.94 0 0 1 .92-.044c1.838-5.246 3.669-10.492 5.5-15.738a4.667 4.667 0 0 1-2.514-1.725l-5.833 16.5Zm2.75 2.803c.017.122.026.236.026.359a3.204 3.204 0 0 1-1.594 2.758l-2.811 7.26c-.36.93-1.76.675-1.76-.323l.026-8.443a3.138 3.138 0 0 1-.254-1.252c0-1.121.586-2.155 1.532-2.724l2.225-6.288H9.143v16.377c-.026.57-.245 1.06-.91 1.06a6.416 6.416 0 0 0 0 12.83h44.5c3.555 0 6.437-2.855 6.437-6.41a6.416 6.416 0 0 0-6.411-6.42.905.905 0 0 1-.911-.91V23.901H40.13l4.536 12.856c.062.158.07.316.035.473l-1.06 5.544c-.175.92-1.462.999-1.76.114-1.305-3.354-2.584-6.717-3.906-10.063-.114-.263-.272-.368-.753-.149a.905.905 0 0 1-1.2-.464l-2.908-8.311h-4.843l-2.908 8.311c-.332.753-.937.534-1.497.342Zm-3.67 3.52a3.701 3.701 0 0 1-.63-.166v1.795l.63-1.629Zm.5-4.528a1.37 1.37 0 1 0 0 2.742 1.37 1.37 0 0 0 1.366-1.375c0-.736-.587-1.367-1.367-1.367Zm13.732-18.295a4.604 4.604 0 0 1-2.514 1.725l5.492 15.712c1.2-.28 1.743.307 2.233 1.393.946 2.408 1.874 4.825 2.811 7.243l.42-2.199-8.442-23.874Zm-3.74 3.73L28.91 22.08h3.565l-1.787-5.097ZM7.322 39.57V15.284a6.42 6.42 0 0 0-5.5 6.35V42.59a8.228 8.228 0 0 1 5.5-3.021Zm46.348 0a8.228 8.228 0 0 1 5.5 3.021V21.66c0-3.206-2.321-5.92-5.5-6.376V39.57Z" fill="#000"/></symbol><symbol fill="none" viewBox="0 0 19 19" id="score-icon" xmlns="http://www.w3.org/2000/svg"><g fill="#A98567"><path d="M11.049 2.28a5.76 5.76 0 1 1-.002 11.518 5.76 5.76 0 0 1 .002-11.519Zm0-2.28a8.04 8.04 0 0 0-3.13 15.444A8.04 8.04 0 0 0 14.176.634 7.99 7.99 0 0 0 11.05 0Z"/><path d="M4.934 12.425.791 16.568a1.118 1.118 0 0 0 0 1.582l.03.03a1.118 1.118 0 0 0 1.582 0l4.143-4.143a1.118 1.118 0 0 0 0-1.582l-.03-.03a1.118 1.118 0 0 0-1.582 0Z"/></g></symbol><symbol fill="none" viewBox="0 0 39 22" id="tringle-decor" xmlns="http://www.w3.org/2000/svg"><path d="m19.5 0 19.486 21.75H.014L19.5 0Z" fill="#EFEBDE"/></symbol><symbol fill="none" viewBox="0 0 23 13" id="vk-icon" xmlns="http://www.w3.org/2000/svg"><path fill-rule="evenodd" clip-rule="evenodd" d="M11.253 12.946h1.375s.415-.046.627-.272c.195-.208.189-.598.189-.598s-.027-1.828.83-2.097c.843-.265 1.927 1.766 3.076 2.547.868.592 1.528.462 1.528.462l3.072-.042s1.607-.098.845-1.35c-.063-.103-.444-.926-2.284-2.618-1.926-1.771-1.668-1.485.652-4.548 1.413-1.866 1.978-3.005 1.802-3.493-.169-.465-1.208-.342-1.208-.342L18.3.616s-.257-.034-.447.078c-.186.11-.305.368-.305.368S17 2.506 16.27 3.734c-1.54 2.59-2.156 2.727-2.408 2.567-.585-.375-.44-1.507-.44-2.31 0-2.511.385-3.558-.748-3.829-.376-.09-.652-.15-1.614-.159-1.234-.013-2.278.004-2.87.29-.393.192-.696.617-.512.641.229.03.747.139 1.021.509.355.478.342 1.55.342 1.55s.204 2.956-.475 3.323c-.467.252-1.106-.262-2.479-2.612-.704-1.205-1.235-2.535-1.235-2.535S4.75.919 4.567.787a1.445 1.445 0 0 0-.531-.213L.75.596S.256.609.075.822c-.161.189-.013.58-.013.58s2.573 5.964 5.486 8.97c2.672 2.755 5.705 2.574 5.705 2.574Z" fill="#A98567"/></symbol></svg>